<svg viewBox="0 0 128 128" width="128px" height="128px" fill="#ffffff" xmlns="http://www.w3.org/2000/svg">
	<path d="M 36.57143020629883 0 C 41.62857055664062 0 45.71428680419922 3.575000047683716 45.71428680419922 8 L 45.71428680419922 16 L 82.28572082519531 16 L 82.28572082519531 8 C 82.28572082519531 3.574999809265137 86.37142944335938 0 91.42857360839844 0 C 96.48572540283203 0 100.5714340209961 3.575000047683716 100.5714340209961 8 L 100.5714340209961 16 L 114.2857208251953 16 C 121.8571472167969 16 128 21.375 128 28 L 128 40 L 0 40 L 0 28 C 0 21.375 6.142857551574707 16 13.71428680419922 16 L 27.42857360839844 16 L 27.42857360839844 8 C 27.42857360839844 3.574999809265137 31.5142879486084 0 36.57143020629883 0 Z M 0 48 L 128 48 L 128 116 C 128 122.625 121.8571472167969 128 114.2857208251953 128 L 13.71428680419922 128 C 6.142857551574707 128 0 122.625 0 116 L 0 48 Z M 18.28571510314941 68 L 18.28571510314941 76 C 18.28571510314941 78.19999694824219 20.34285736083984 80 22.85714340209961 80 L 32 80 C 34.51428985595703 80 36.57143020629883 78.19999694824219 36.57143020629883 76 L 36.57143020629883 68 C 36.57143020629883 65.80000305175781 34.51428985595703 64 32 64 L 22.85714340209961 64 C 20.34285736083984 64 18.28571510314941 65.80000305175781 18.28571510314941 68 Z M 54.85714721679688 68 L 54.85714721679688 76 C 54.85714721679688 78.19999694824219 56.91428756713867 80 59.42857360839844 80 L 68.57143402099609 80 C 71.08571624755859 80 73.14286041259766 78.19999694824219 73.14286041259766 76 L 73.14286041259766 68 C 73.14286041259766 65.80000305175781 71.08571624755859 64 68.57143402099609 64 L 59.42857360839844 64 C 56.91428756713867 64 54.85714721679688 65.80000305175781 54.85714721679688 68 Z M 96.00000762939453 64 C 93.48572540283203 64 91.42857360839844 65.80000305175781 91.42857360839844 68 L 91.42857360839844 76 C 91.42857360839844 78.19999694824219 93.48572540283203 80 96.00000762939453 80 L 105.1428604125977 80 C 107.6571426391602 80 109.7142944335938 78.19999694824219 109.7142944335938 76 L 109.7142944335938 68 C 109.7142944335938 65.80000305175781 107.6571426391602 64 105.1428604125977 64 L 96.00000762939453 64 Z M 18.28571510314941 100 L 18.28571510314941 108 C 18.28571510314941 110.1999969482422 20.34285736083984 112 22.85714340209961 112 L 32 112 C 34.51428985595703 112 36.57143020629883 110.1999969482422 36.57143020629883 108 L 36.57143020629883 100 C 36.57143020629883 97.80000305175781 34.51428985595703 96 32 96 L 22.85714340209961 96 C 20.34285736083984 96 18.28571510314941 97.80000305175781 18.28571510314941 100 Z M 59.42857360839844 96 C 56.91428756713867 96 54.85714721679688 97.80000305175781 54.85714721679688 100 L 54.85714721679688 108 C 54.85714721679688 110.1999969482422 56.91428756713867 112 59.42857360839844 112 L 68.57143402099609 112 C 71.08571624755859 112 73.14286041259766 110.1999969482422 73.14286041259766 108 L 73.14286041259766 100 C 73.14286041259766 97.80000305175781 71.08571624755859 96 68.57143402099609 96 L 59.42857360839844 96 Z M 91.42857360839844 100 L 91.42857360839844 108 C 91.42857360839844 110.1999969482422 93.48572540283203 112 96.00000762939453 112 L 105.1428604125977 112 C 107.6571426391602 112 109.7142944335938 110.1999969482422 109.7142944335938 108 L 109.7142944335938 100 C 109.7142944335938 97.80000305175781 107.6571426391602 96 105.1428604125977 96 L 96.00000762939453 96 C 93.48572540283203 96 91.42857360839844 97.80000305175781 91.42857360839844 100 Z">
	</path>
</svg>