<svg viewBox="0 0.002 40 40" width="40px" height="40px" fill="#ffffff" xmlns="http://www.w3.org/2000/svg">
	<path d="M 17.59027862548828 2.74385142326355 C 18.01388740539551 1.821973085403442 17.69444465637207 0.6891566514968872 16.88194465637207 0.2125923484563828 C 16.0694465637207 -0.2639719545841217 15.05555534362793 0.09540446102619171 14.63194561004639 1.009470105171204 L 8.166666030883789 15.00170612335205 L 2.222222089767456 15.00170612335205 C 0.9930556416511536 15.00170612335205 1.080334186553955e-07 16.11890029907227 1.080334186553955e-07 17.5017147064209 C 1.080334186553955e-07 18.8845329284668 0.9930556416511536 20.00172424316406 2.222222089767456 20.00172424316406 L 5.826388835906982 36.21271896362305 C 6.319445133209229 38.43928909301758 8.097222328186035 40.00179290771484 10.13888931274414 40.00179290771484 L 29.86111259460449 40.00179290771484 C 31.90277862548828 40.00179290771484 33.6805534362793 38.43928909301758 34.17361068725586 36.21271896362305 L 37.77777862548828 20.00172424316406 C 39.0069465637207 20.00172424316406 40 18.8845329284668 40 17.5017147064209 C 40 16.11890029907227 39.0069465637207 15.00170612335205 37.77777862548828 15.00170612335205 L 31.83333396911621 15.00170612335205 L 25.3680534362793 1.009470224380493 C 24.94444465637207 0.09540469944477081 23.93750190734863 -0.2639715671539307 23.11805534362793 0.2125926166772842 C 22.29860877990723 0.6891567707061768 21.98611068725586 1.821973204612732 22.40971946716309 2.743851900100708 L 28.07638931274414 15.00170612335205 L 11.92361164093018 15.00170612335205 L 17.59027862548828 2.74385142326355 Z M 13.33333396911621 23.75173950195312 L 13.33333396911621 31.25176239013672 C 13.33333396911621 31.93926429748535 12.83333396911621 32.50176620483398 12.22222232818604 32.50176620483398 C 11.61111164093018 32.50176620483398 11.11111068725586 31.93926429748535 11.11111068725586 31.25176239013672 L 11.11111068725586 23.75173950195312 C 11.11111068725586 23.06423759460449 11.61111164093018 22.50173377990723 12.22222232818604 22.50173377990723 C 12.83333396911621 22.50173377990723 13.33333396911621 23.06423759460449 13.33333396911621 23.75173950195312 Z M 20 22.50173377990723 C 20.61110877990723 22.50173377990723 21.11111259460449 23.06423759460449 21.11111259460449 23.75173950195312 L 21.11111259460449 31.25176239013672 C 21.11111259460449 31.93926429748535 20.61110877990723 32.50176620483398 20 32.50176620483398 C 19.38889122009277 32.50176620483398 18.88888931274414 31.93926429748535 18.88888931274414 31.25176239013672 L 18.88888931274414 23.75173950195312 C 18.88888931274414 23.06423759460449 19.38889122009277 22.50173377990723 20 22.50173377990723 Z M 28.88888740539551 23.75173950195312 L 28.88888740539551 31.25176239013672 C 28.88888740539551 31.93926429748535 28.38888931274414 32.50176620483398 27.77778053283691 32.50176620483398 C 27.16666793823242 32.50176620483398 26.66666793823242 31.93926429748535 26.66666793823242 31.25176239013672 L 26.66666793823242 23.75173950195312 C 26.66666793823242 23.06423759460449 27.16666793823242 22.50173377990723 27.77778053283691 22.50173377990723 C 28.38888931274414 22.50173377990723 28.88888740539551 23.06423759460449 28.88888740539551 23.75173950195312 Z">
	</path>
</svg>