<svg viewBox="0 0.002 32 32" width="32px" height="32px" xmlns="http://www.w3.org/2000/svg" fill="#ffffff">
	<path d="M 14.07222270965576 2.195440292358398 C 14.41111087799072 1.457937598228455 14.15555572509766 0.5516843199729919 13.50555610656738 0.1704328209161758 C 12.85555648803711 -0.2108186781406403 12.0444450378418 0.07668249309062958 11.70555591583252 0.8079350590705872 L 6.533333301544189 12.00172519683838 L 1.777777791023254 12.00172519683838 C 0.7944443821907043 12.00172519683838 0 12.89547824859619 0 14.00173187255859 C 0 15.10798645019531 0.7944444417953491 16.00173950195312 1.777777791023254 16.00173950195312 L 4.661111354827881 28.97053527832031 C 5.055555820465088 30.75179290771484 6.47777795791626 32.00179672241211 8.111111640930176 32.00179672241211 L 23.88888931274414 32.00179672241211 C 25.5222225189209 32.00179672241211 26.94444465637207 30.75179290771484 27.33889007568359 28.97053527832031 L 30.22222328186035 16.00173950195312 C 31.20555686950684 16.00173950195312 32 15.10798645019531 32 14.00173187255859 C 32 12.89547824859619 31.20555686950684 12.00172519683838 30.22222328186035 12.00172519683838 L 25.46666717529297 12.00172519683838 L 20.29444313049316 0.8079352378845215 C 19.95555686950684 0.0766826868057251 19.15000152587891 -0.210818350315094 18.49444389343262 0.1704330295324326 C 17.83888816833496 0.5516843795776367 17.58889007568359 1.457937717437744 17.92777633666992 2.195440530776978 L 22.46111106872559 12.00172519683838 L 9.538888931274414 12.00172519683838 L 14.07222270965576 2.195440292358398 Z M 10.66666698455811 19.00175094604492 L 10.66666698455811 25.00177192687988 C 10.66666698455811 25.55177307128906 10.26666736602783 26.00177574157715 9.777777671813965 26.00177574157715 C 9.288888931274414 26.00177574157715 8.888889312744141 25.55177307128906 8.888889312744141 25.00177192687988 L 8.888889312744141 19.00175094604492 C 8.888889312744141 18.45174980163574 9.288888931274414 18.00174713134766 9.777777671813965 18.00174713134766 C 10.26666736602783 18.00174713134766 10.66666698455811 18.45174980163574 10.66666698455811 19.00175094604492 Z M 16 18.00174713134766 C 16.48888778686523 18.00174713134766 16.88888931274414 18.45174980163574 16.88888931274414 19.00175094604492 L 16.88888931274414 25.00177192687988 C 16.88888931274414 25.55177307128906 16.48888778686523 26.00177574157715 16 26.00177574157715 C 15.51111221313477 26.00177574157715 15.11111164093018 25.55177307128906 15.11111164093018 25.00177192687988 L 15.11111164093018 19.00175094604492 C 15.11111164093018 18.45174980163574 15.51111221313477 18.00174713134766 16 18.00174713134766 Z M 23.11111068725586 19.00175094604492 L 23.11111068725586 25.00177192687988 C 23.11111068725586 25.55177307128906 22.71111106872559 26.00177574157715 22.22222328186035 26.00177574157715 C 21.73333358764648 26.00177574157715 21.33333396911621 25.55177307128906 21.33333396911621 25.00177192687988 L 21.33333396911621 19.00175094604492 C 21.33333396911621 18.45174980163574 21.73333358764648 18.00174713134766 22.22222328186035 18.00174713134766 C 22.71111106872559 18.00174713134766 23.11111068725586 18.45174980163574 23.11111068725586 19.00175094604492 Z">
	</path>
</svg>