<svg viewBox="0 62.3 128 128" width="128px" height="128px" fill="#8f2d56" xmlns="http://www.w3.org/2000/svg">
	<path d="M 85.37999725341797 136.0802001953125 C 93.79249572753906 136.0802001953125 105.9649963378906 133.7867431640625 105.9649963378906 120.5482177734375 C 106.0199890136719 118.3208618164062 106.1799850463867 119.9467620849609 100.7449951171875 88.7440185546875 C 99.58999633789062 82.41556549072266 98.57499694824219 79.54380798339844 90.16749572753906 73.9886474609375 C 83.64499664306641 69.58020782470703 69.4375 62.30000305175781 65.23499298095703 62.30000305175781 C 61.31998825073242 62.30000305175781 60.18499374389648 68.96553802490234 55.51749420166016 68.96553802490234 C 51.01749420166016 68.96553802490234 47.68999481201172 63.98869705200195 43.48749542236328 63.98869705200195 C 39.45249557495117 63.98869705200195 36.82249450683594 67.62383270263672 34.79249572753906 75.09901428222656 C 27.91749382019043 100.7267684936523 28.22249603271484 99.64283752441406 28.26249504089355 100.964714050293 C 28.26249504089355 109.1603088378906 52.67248916625977 136.0306396484375 85.37999725341797 136.0306396484375 M 107.2499923706055 125.92822265625 C 108.4124984741211 133.1985168457031 108.4124984741211 133.9751129150391 108.4124984741211 134.9334564208984 C 108.4124984741211 147.3788757324219 97.82999420166016 154.28564453125 83.91249847412109 154.28564453125 C 52.47750091552734 154.3120727539062 24.93499565124512 129.9467010498047 24.93499565124512 113.8595504760742 C 24.93238067626953 111.6183471679688 25.2778434753418 109.4002914428711 25.94999694824219 107.3427200317383 C 14.64000034332275 108.0895919799805 0 110.7564544677734 0 127.8416366577148 C 0 155.8223266601562 50.15750503540039 190.3000030517578 89.87249755859375 190.3000030517578 C 120.3199996948242 190.3000030517578 128 172.0978546142578 128 157.7225189208984 C 128 146.4172210693359 120.6025009155273 133.5818481445312 107.2674942016602 125.9183120727539">
	</path>
</svg>