<svg viewBox="8 8 32 32" width="32px" height="32px" fill="#ffffff" xmlns="http://www.w3.org/2000/svg">
	<path d="M 40 24.09736251831055 C 40 15.20486831665039 32.83870697021484 8 24 8 C 15.16129016876221 8 8 15.20486831665039 8 24.09736251831055 C 8 32.13176345825195 13.85096740722656 38.79139709472656 21.5 40 L 21.5 28.75066947937012 L 17.43548393249512 28.75066947937012 L 17.43548393249512 24.09736251831055 L 21.5 24.09736251831055 L 21.5 20.55075073242188 C 21.5 16.51667213439941 23.8870964050293 14.28835678100586 27.5432243347168 14.28835678100586 C 29.29419326782227 14.28835678100586 31.12516021728516 14.60251426696777 31.12516021728516 14.60251426696777 L 31.12516021728516 18.56194686889648 L 29.10709571838379 18.56194686889648 C 27.11999893188477 18.56194686889648 26.49999809265137 19.80300140380859 26.49999809265137 21.07586097717285 L 26.49999809265137 24.09736251831055 L 30.93741798400879 24.09736251831055 L 30.22773933410645 28.75066947937012 L 26.49999809265137 28.75066947937012 L 26.49999809265137 40 C 34.14903259277344 38.79139709472656 40 32.13176345825195 40 24.09736251831055 Z">
	</path>
</svg>