<svg viewBox="-0.075 31.825 32 32" width="32px" height="32px" fill="#ffffff" xmlns="http://www.w3.org/2000/svg">
	<path d="M 15.92857456207275 39.62060165405273 C 11.38825035095215 39.62060165405273 7.726008415222168 43.28366088867188 7.726008415222168 47.82499694824219 C 7.726008415222168 52.3663330078125 11.38825035095215 56.02938842773438 15.92857456207275 56.02938842773438 C 20.46889686584473 56.02938842773438 24.13113784790039 52.3663330078125 24.13113784790039 47.82499694824219 C 24.13113784790039 43.28366088867188 20.46889686584473 39.62060165405273 15.92857456207275 39.62060165405273 Z M 15.92857456207275 53.1589241027832 C 12.99449634552002 53.1589241027832 10.59583568572998 50.76686859130859 10.59583568572998 47.82499694824219 C 10.59583568572998 44.88312530517578 12.98735809326172 42.49106979370117 15.92857456207275 42.49106979370117 C 18.86978721618652 42.49106979370117 21.26131057739258 44.88312530517578 21.26131057739258 47.82499694824219 C 21.26131057739258 50.76686859130859 18.86264801025391 53.1589241027832 15.92857265472412 53.1589241027832 Z M 26.37988471984863 39.28499984741211 C 26.37988471984863 40.34892654418945 25.52321815490723 41.19864273071289 24.46666717529297 41.19864273071289 C 23.40297508239746 41.19864273071289 22.5534496307373 40.34178924560547 22.5534496307373 39.28499984741211 C 22.5534496307373 38.22821044921875 23.41011428833008 37.37135314941406 24.46666717529297 37.37135314941406 C 25.52321815490723 37.37135314941406 26.37988471984863 38.22821044921875 26.37988471984863 39.28499984741211 Z M 31.81256675720215 41.22720336914062 C 31.69120597839355 38.66378021240234 31.10581970214844 36.39311218261719 29.22829437255859 34.52230834960938 C 27.35790824890137 32.65150451660156 25.08774757385254 32.06598663330078 22.52489280700684 31.93745803833008 C 19.88350868225098 31.78750991821289 11.96649932861328 31.78750991821289 9.325116157531738 31.93745803833008 C 6.769399166107178 32.05884552001953 4.499237537384033 32.64436340332031 2.621713399887085 34.51516723632812 C 0.744189441204071 36.38597106933594 0.1659408211708069 38.65663909912109 0.03744114190340042 41.22006225585938 C -0.1124752014875412 43.86203765869141 -0.1124752014875412 51.78081512451172 0.03744114190340042 54.42278289794922 C 0.1588020026683807 56.98621368408203 0.7441896200180054 59.25688171386719 2.621713399887085 61.12768173217773 C 4.499237537384033 62.99848175048828 6.762260437011719 63.58400344848633 9.325116157531738 63.71253204345703 C 11.96649932861328 63.86248016357422 19.88350868225098 63.86248016357422 22.52489280700684 63.71253204345703 C 25.08774757385254 63.59114456176758 27.35791015625 63.0056266784668 29.22829437255859 61.12768173217773 C 31.09868049621582 59.25688171386719 31.68406677246094 56.98621368408203 31.81256675720215 54.42278289794922 C 31.96248435974121 51.78081512451172 31.96248435974121 43.86917877197266 31.81256675720215 41.22720336914062 Z M 28.40018463134766 57.25755310058594 C 27.84335327148438 58.65708160400391 26.76538276672363 59.73529434204102 25.35902404785156 60.29939270019531 C 23.25305557250977 61.13482666015625 18.25584411621094 60.94203186035156 15.9285717010498 60.94203186035156 C 13.60129833221436 60.94203186035156 8.596948623657227 61.127685546875 6.498119354248047 60.29939270019531 C 5.098900318145752 59.742431640625 4.020930290222168 58.66422271728516 3.456959247589111 57.25755310058594 C 2.621711015701294 55.15111541748047 2.814460515975952 50.15278625488281 2.814460515975952 47.82499694824219 C 2.814460515975952 45.4972038269043 2.628849983215332 40.49173736572266 3.456959247589111 38.39244079589844 C 4.013791561126709 36.9929084777832 5.091761589050293 35.91469955444336 6.498119354248047 35.35060119628906 C 8.604086875915527 34.51516723632812 13.60129833221436 34.70795822143555 15.9285717010498 34.70795822143555 C 18.25584411621094 34.70795822143555 23.26019477844238 34.52230834960938 25.35902404785156 35.35060119628906 C 26.75824356079102 35.90755844116211 27.83621406555176 36.98576736450195 28.40018463134766 38.39244079589844 C 29.23543357849121 40.49887847900391 29.04268264770508 45.4972038269043 29.04268264770508 47.82499694824219 C 29.04268264770508 50.15278625488281 29.23543357849121 55.15825271606445 28.40018463134766 57.25755310058594 Z">
	</path>
</svg>