<svg class="arrow" viewBox="0 0 24 24" fill="#ffbc42" width="24px" height="24px" xmlns="http://www.w3.org/2000/svg">
	<path d="M 2.25 12 C 2.25 6.615222930908203 6.615224361419678 2.25 12 2.25 C 17.3847770690918 2.25 21.75 6.615224361419678 21.75 12 C 21.75 17.3847770690918 17.38477516174316 21.75 11.99999904632568 21.75 C 6.615222930908203 21.75 2.25 17.38477516174316 2.25 11.99999904632568 Z M 24 12 C 24 5.37258243560791 18.62741661071777 0 11.99999904632568 0 C 5.37258243560791 0 0 5.372583389282227 0 12 C 0 18.62741661071777 5.372583389282227 24 12 24 C 18.62741661071777 24 24 18.62741661071777 24 11.99999904632568 Z M 10.19062423706055 17.66718673706055 C 10.38749980926514 17.87812423706055 10.6640625 18 10.95468711853027 18 C 11.53125 18 12 17.53125 12 16.95468902587891 L 12 14.25 L 16.5 14.25 C 17.32968902587891 14.25 18 13.57968807220459 18 12.75 L 18 11.25 C 18 10.42031288146973 17.32968902587891 9.75 16.5 9.75 L 12 9.75 L 12 7.045312881469727 C 12 6.46875 11.53125 6 10.95468711853027 6 C 10.6640625 6 10.38749980926514 6.121875286102295 10.19062423706055 6.332812786102295 L 5.5078125 11.35312461853027 C 5.34375 11.53125 5.25 11.76093673706055 5.25 12 C 5.25 12.23906326293945 5.34375 12.47343826293945 5.5078125 12.64687442779541 L 10.19062423706055 17.66718673706055 Z">
	</path>
</svg>