<svg viewBox="1 -126 103.1 100" fill="#ffbc42" width="103px" height="100px" xmlns="http://www.w3.org/2000/svg">
	<path d="M 77.20000457763672 -123.3000030517578 C 77.40000152587891 -121 78 -120.4000015258789 80.70000457763672 -120.2000045776367 C 85.80000305175781 -119.7000045776367 86.59999847412109 -117.8000030517578 84.09999847412109 -112.5 C 82.90000152587891 -110 78 -98.40000152587891 73 -86.70000457763672 C 60.20000076293945 -56.20000076293945 58.40000152587891 -52.10000228881836 57.70000076293945 -51.40000152587891 C 57.40000152587891 -51.10000228881836 55.5 -54.29999923706055 53.60000228881836 -58.5 L 50 -66.30000305175781 L 56.40000152587891 -83.90000152587891 C 60 -93.59999847412109 63.20000076293945 -102.3000030517578 63.60000228881836 -103.3000030517578 C 64.40000152587891 -105.5 69.09999847412109 -108 72.5 -108 C 73.90000152587891 -108 75 -108.4000015258789 75 -108.9000015258789 C 75 -109.4000015258789 75.30000305175781 -110.5 75.59999847412109 -111.4000015258789 C 76.09999847412109 -112.8000030517578 74.40000152587891 -113 60.60000228881836 -113 C 45.29999923706055 -113 44.90000152587891 -113 44.10000228881836 -110.8000030517578 C 43.40000152587891 -108.9000015258789 43.60000228881836 -108.3000030517578 45.40000152587891 -107.5 C 46.5 -107 47.79999923706055 -106.0999984741211 48.10000228881836 -105.5999984741211 C 48.70000076293945 -104.8000030517578 43.10000228881836 -86.70000457763672 41.79999923706055 -85.5 C 41.5 -85.20000457763672 40 -87.80000305175781 38.5 -91.20000457763672 C 36.90000152587891 -94.70000457763672 33.70000076293945 -101.5999984741211 31.30000114440918 -106.7000045776367 C 26.80000114440918 -116.0999984741211 26.60000038146973 -118 30.10000038146973 -118 C 31.5 -118 32 -118.7000045776367 32 -121 L 32 -124 L 16.5 -124 L 1 -124 L 1 -121 C 1 -118.3000030517578 1.300000071525574 -118 4 -118 C 9.300000190734863 -118 12.10000038146973 -113.8000030517578 23.5 -89.5 C 29.39999961853027 -76.90000152587891 34.29999923706055 -66.09999847412109 34.29999923706055 -65.5 C 34.40000152587891 -63 23.60000038146973 -36 22 -34.5 C 20.89999961853027 -33.5 17.70000076293945 -32.60000228881836 13.80000019073486 -32.29999923706055 C 9.800000190734863 -32 7.099999904632568 -31.20000076293945 6.200000286102295 -30.20000076293945 C 2.900000095367432 -26 2.900000095367432 -26 48.29999923706055 -26 L 91.70000457763672 -26 L 97.70000457763672 -38.70000076293945 L 103.7000045776367 -51.5 L 101.0999984741211 -51.79999923706055 C 99.40000152587891 -52.10000228881836 98.20000457763672 -51.60000228881836 97.5 -50.40000152587891 C 93.20000457763672 -43 88 -36.20000076293945 85.09999847412109 -34.29999923706055 C 81.80000305175781 -32.10000228881836 80.90000152587891 -32 59.40000152587891 -32 L 37.10000228881836 -32 L 39.79999923706055 -39.5 C 41.29999923706055 -43.60000228881836 42.79999923706055 -47 43.10000228881836 -47 C 43.40000152587891 -47 44.70000076293945 -44.79999923706055 46 -42 L 48.29999923706055 -37 L 53.70000076293945 -37 L 59.10000228881836 -37 L 61.5 -42.29999923706055 C 62.79999923706055 -45.10000228881836 70.20000457763672 -62.60000228881836 78 -81 C 85.80000305175781 -99.40000152587891 93.20000457763672 -115.5999984741211 94.5 -116.9000015258789 C 95.70000457763672 -118.0999984741211 98.30000305175781 -119.5 100.0999984741211 -119.9000015258789 C 102.8000030517578 -120.4000015258789 103.5999984741211 -121.0999984741211 103.8000030517578 -123.3000030517578 L 104.0999984741211 -126 L 90.5 -126 L 76.90000152587891 -126 L 77.20000457763672 -123.3000030517578 Z">
	</path>
</svg>