<svg viewBox="0 0 128 128" width="128px" height="128px" fill="#8f2d56" xmlns="http://www.w3.org/2000/svg">
	<path d="M 64 0 C 99.34622192382812 0 128 28.65377807617188 128 64 C 128 99.34622192382812 99.34622192382812 128 63.99999618530273 128 C 28.65377426147461 128 0 99.34622192382812 0 63.99999618530273 C 0 28.65377426147461 28.65377807617188 0 64 0 Z M 58 30 L 58 64 C 58 66 59 67.875 60.67499923706055 69 L 84.67500305175781 85 C 87.42500305175781 86.84999847412109 91.15000152587891 86.09999847412109 93 83.32499694824219 C 94.84999847412109 80.54999542236328 94.09999847412109 76.84999847412109 91.32499694824219 75 L 70 60.79999923706055 L 70 30 C 70 26.67499923706055 67.32499694824219 24 64 24 C 60.67500305175781 24 58 26.67499923706055 58 30 Z">
	</path>
</svg>