<svg viewBox="0.025 32 42 32" width="42px" height="32px" xmlns="http://www.w3.org/2000/svg">
	<path id="eye-solid" d="M 21.0213565826416 32 C 15.13019943237305 32 10.41290187835693 34.62857055664062 6.978824138641357 37.75714111328125 C 3.566619873046875 40.85714340209961 1.284526228904724 44.57142639160156 0.2054532170295715 47.12142944335938 C -0.03515093401074409 47.68571472167969 -0.03515093401074409 48.31428527832031 0.2054532170295715 48.87857055664062 C 1.284526228904724 51.42857360839844 3.566619873046875 55.14285659790039 6.978824615478516 58.24285888671875 C 10.41290187835693 61.37142944335938 15.13019943237305 64 21.0213565826416 64 C 26.91251182556152 64 31.62980842590332 61.37142944335938 35.06388854980469 58.24285888671875 C 38.47609329223633 55.13571166992188 40.75818634033203 51.42857360839844 41.84454727172852 48.87857055664062 C 42.08515167236328 48.31428527832031 42.08515167236328 47.68571472167969 41.84454727172852 47.12142944335938 C 40.7581787109375 44.57142639160156 38.47608947753906 40.85713958740234 35.06388473510742 37.75714111328125 C 31.62980842590332 34.62857055664062 26.91251182556152 32 21.0213565826416 32 Z M 10.52226638793945 48 C 10.52226638793945 42.31935501098633 15.22286987304688 37.71428680419922 21.0213565826416 37.71428680419922 C 26.81984329223633 37.71428680419922 31.52044677734375 42.31935882568359 31.52044677734375 48 C 31.52044677734375 53.68064117431641 26.81984329223633 58.28571319580078 21.0213565826416 58.28571319580078 C 15.22286987304688 58.28571319580078 10.52226638793945 53.68064117431641 10.52226638793945 48 Z M 21.0213565826416 43.42857360839844 C 21.0213565826416 45.95000076293945 18.92883110046387 48 16.35509300231934 48 C 15.83743095397949 48 15.34164047241211 47.91428375244141 14.87501335144043 47.76428604125977 C 14.47400665283203 47.63571166992188 14.00738143920898 47.87857055664062 14.02196407318115 48.2928581237793 C 14.04383659362793 48.78571319580078 14.11674690246582 49.27857208251953 14.25527572631836 49.77143096923828 C 15.25414848327637 53.42857360839844 19.09652328491211 55.60000228881836 22.82953071594238 54.62142944335938 C 26.56254005432129 53.64285659790039 28.77901649475098 49.87857055664062 27.78014183044434 46.22142791748047 C 26.9708366394043 43.25714111328125 24.2950267791748 41.26428604125977 21.32028579711914 41.14285659790039 C 20.89740943908691 41.12857055664062 20.64951133728027 41.57857131958008 20.7807502746582 41.97856903076172 C 20.93386268615723 42.43571472167969 21.02135276794434 42.92142868041992 21.02135276794434 43.42857360839844 Z">
	</path>
</svg>