<svg viewBox="0 8 32 32" width="32px" height="32px" fill="#ffffff" xmlns="http://www.w3.org/2000/svg">
	<path d="M 32 24 C 32 32.83870697021484 24.83870887756348 40 16 40 C 14.34838581085205 40 12.76129055023193 39.74838638305664 11.26451587677002 39.28387069702148 C 11.91612911224365 38.21935272216797 12.8903226852417 36.4774169921875 13.25161266326904 35.0903205871582 C 13.44516181945801 34.34193420410156 14.24516105651855 31.28387069702148 14.24516105651855 31.28387069702148 C 14.76774215698242 32.27741622924805 16.29032135009766 33.12257766723633 17.90967750549316 33.12257766723633 C 22.7354850769043 33.12257766723633 26.2129020690918 28.68386840820312 26.2129020690918 23.1677417755127 C 26.2129020690918 17.88386917114258 21.89677238464355 13.92903137207031 16.34838676452637 13.92903137207031 C 9.445160865783691 13.92903137207031 5.774193286895752 18.5612907409668 5.774193286895752 23.6129035949707 C 5.774193286895752 25.96129035949707 7.025806427001953 28.88387107849121 9.019354820251465 29.81290435791016 C 9.322580337524414 29.9548397064209 9.483870506286621 29.89032363891602 9.554839134216309 29.60000038146973 C 9.606451988220215 29.38064575195312 9.877419471740723 28.29032516479492 10 27.7870979309082 C 10.03870964050293 27.62580680847168 10.01935482025146 27.48387145996094 9.890322685241699 27.32903289794922 C 9.238709449768066 26.52258110046387 8.709676742553711 25.05161476135254 8.709676742553711 23.67741966247559 C 8.709676742553711 20.14838600158691 11.38064479827881 16.73548316955566 15.9354829788208 16.73548316955566 C 19.86451530456543 16.73548316955566 22.61935424804688 19.41290283203125 22.61935424804688 23.24515914916992 C 22.61935424804688 27.57419395446777 20.43225860595703 30.57419204711914 17.58709716796875 30.57419204711914 C 16.01935386657715 30.57419204711914 14.83870887756348 29.27741813659668 15.2193546295166 27.68387031555176 C 15.6709680557251 25.7806453704834 16.54193687438965 23.72903251647949 16.54193687438965 22.35483741760254 C 16.54193687438965 21.12903213500977 15.88387203216553 20.10322570800781 14.5161304473877 20.10322570800781 C 12.9096794128418 20.10322570800781 11.61935710906982 21.76128959655762 11.61935710906982 23.98709678649902 C 11.61935710906982 25.40645027160645 12.09677600860596 26.36128997802734 12.09677600860596 26.36128997802734 C 12.09677600860596 26.36128997802734 10.5161304473877 33.05806350708008 10.22580814361572 34.30967712402344 C 9.903227806091309 35.6903190612793 10.03225994110107 37.63870620727539 10.16774368286133 38.90322494506836 C 4.219354629516602 36.57419204711914 0 30.7806453704834 0 24 C 0 15.16129016876221 7.161290168762207 8 16 8 C 24.83870887756348 8 32 15.16129016876221 32 24 Z">
	</path>
</svg>