<svg viewBox="0 32 128 105" width="128px" height="128px" fill="#ffffff" xmlns="http://www.w3.org/2000/svg">
	<path d="M 10.66666698455811 137 C 4.775555610656738 137 0 131.9609222412109 0 125.7499923706055 L 0 43.24999618530273 C 0 37.03671646118164 4.775555610656738 32 10.66666698455811 32 L 117.3333358764648 32 C 123.2222213745117 32 128 37.03671646118164 128 43.24999618530273 L 128 43.81953048706055 L 111.2222213745117 43.81953048706055 L 107.4444427490234 54.96874237060547 L 103.6888885498047 43.81953048706055 L 82.08889007568359 43.81953048706055 L 82.08889007568359 58.62499237060547 L 75.84444427490234 43.81953048706055 L 58.37778091430664 43.81953048706055 L 40.22222137451172 87.10154724121094 L 54.84444427490234 87.10154724121094 L 54.84444427490234 125.4921875 L 100.1111145019531 125.4921875 L 107.1999969482422 117.2655944824219 L 114.2888870239258 125.4921875 L 128 125.4921875 L 128 125.7499923706055 C 128 131.9609222412109 123.2222213745117 137 117.3333358764648 137 L 10.66666698455811 137 Z M 107.2444458007812 109.8124771118164 L 97.86666870117188 120.6640548706055 L 86.77777862548828 120.6640548706055 L 101.7777786254883 103.8593597412109 L 86.77777862548828 86.86717987060547 L 98.19999694824219 86.86717987060547 L 107.4222183227539 97.81248474121094 L 116.7555618286133 86.86717987060547 L 128 86.86717987060547 L 112.8888931274414 103.7656021118164 L 128 120.6640548706055 L 116.5777740478516 120.6640548706055 L 107.2444458007812 109.8124771118164 Z M 128 94.08592224121094 L 128 113.6093521118164 L 119.2666702270508 103.7890396118164 L 128 94.08592224121094 Z M 68.35556030273438 112.8827972412109 L 86.80000305175781 112.8827972412109 L 86.80000305175781 120.6640548706055 L 59.68889236450195 120.6640548706055 L 59.68889236450195 87.10154724121094 L 86.80000305175781 87.10154724121094 L 86.80000305175781 94.85936737060547 L 68.35556030273438 94.85936737060547 L 68.35556030273438 100.1093597412109 L 86.33333587646484 100.1093597412109 L 86.33333587646484 107.6796646118164 L 68.35556030273438 107.6796646118164 L 68.35556030273438 112.9062423706055 L 68.35556030273438 112.8827972412109 Z M 119.4000015258789 58.64843368530273 L 111.1999969482422 82.22654724121094 L 103.5555572509766 82.22654724121094 L 95.37778472900391 58.71874237060547 L 95.37778472900391 82.22654724121094 L 86.77777862548828 82.22654724121094 L 86.77777862548828 48.64062118530273 L 100.3777847290039 48.64062118530273 L 107.466667175293 69.57030487060547 L 114.6222229003906 48.64062118530273 L 128 48.64062118530273 L 128 82.22654724121094 L 119.4000015258789 82.22654724121094 L 119.4000015258789 58.64843368530273 Z M 74.33333587646484 75.49999237060547 L 59.68889236450195 75.49999237060547 L 57.04444885253906 82.22654724121094 L 47.48888778686523 82.22654724121094 L 61.35555648803711 48.64062118530273 L 72.73332977294922 48.64062118530273 L 86.80000305175781 82.22654724121094 L 77 82.22654724121094 L 74.33333587646484 75.49999237060547 Z M 67 56.96093368530273 L 62.66666793823242 67.95310211181641 L 71.31111145019531 67.95310211181641 L 67 56.96093368530273 Z">
	</path>
</svg>