<svg viewBox="0 32 128 128" width="128px" height="128px" xmlns="http://www.w3.org/2000/svg">
	<path id="Trac_5" d="M 16 32 C 7.175000190734863 32 0 40.20000076293945 0 50.28571701049805 L 0 141.7142944335938 C 0 151.8000030517578 7.175000190734863 160.0000152587891 16 160.0000152587891 L 112 160.0000152587891 C 120.8249969482422 160.0000152587891 128 151.8000030517578 128 141.7142944335938 L 128 77.71429443359375 C 128 67.62857055664062 120.8249969482422 59.42857360839844 112 59.42857360839844 L 20 59.42857360839844 C 17.79999923706055 59.42857360839844 16 57.37143325805664 16 54.85714340209961 C 16 52.34285736083984 17.79999923706055 50.28571701049805 20 50.28571701049805 L 112 50.28571701049805 C 116.4250030517578 50.28571701049805 120 46.20000076293945 120 41.14286041259766 C 120 36.08571624755859 116.4250030517578 32 112 32 L 16 32 Z M 104 100.5714263916016 C 108.4182815551758 100.5714263916016 112 104.6648406982422 112 109.7142944335938 C 112 114.7637481689453 108.4182739257812 118.8571472167969 104 118.8571472167969 C 99.58171844482422 118.8571472167969 96 114.7637481689453 96 109.7142944335938 C 96 104.6648254394531 99.58172607421875 100.5714263916016 104 100.5714263916016 Z">
	</path>
</svg>