<svg class="arrow" viewBox="0 0 24 24" fill="#ffbc42" width="24px" height="24px" xmlns="http://www.w3.org/2000/svg">
	<path d="M 21.75 12 C 21.75 17.3847770690918 17.38477516174316 21.75 11.99999904632568 21.75 C 6.615222930908203 21.75 2.25 17.38477516174316 2.25 11.99999904632568 C 2.25 6.615222930908203 6.615224361419678 2.249999284744263 12 2.249999284744263 C 17.3847770690918 2.249999284744263 21.75 6.615222930908203 21.75 12 Z M 0 12 C 0 18.62741661071777 5.372583389282227 24 12 24 C 18.62741661071777 24 24 18.62741661071777 24 11.99999904632568 C 24 5.37258243560791 18.62741661071777 0 11.99999904632568 0 C 5.37258243560791 0 0 5.372583389282227 0 12 Z M 13.80937576293945 6.332812786102295 C 13.61249923706055 6.121875286102295 13.3359375 6 13.04531288146973 6 C 12.46875 6 12 6.46875 12 7.045312881469727 L 12 9.75 L 7.5 9.75 C 6.670312881469727 9.75 6 10.42031288146973 6 11.25 L 6 12.75 C 6 13.57968807220459 6.670312881469727 14.25 7.5 14.25 L 12 14.25 L 12 16.95468902587891 C 12 17.53125 12.46875 18 13.04531192779541 18 C 13.3359375 18 13.61249923706055 17.87812423706055 13.80937385559082 17.66718673706055 L 18.49218559265137 12.64687442779541 C 18.65624809265137 12.46875 18.74999809265137 12.23906135559082 18.74999809265137 11.99999904632568 C 18.74999809265137 11.76093673706055 18.65624809265137 11.52656173706055 18.49218559265137 11.35312461853027 L 13.80937576293945 6.332812786102295 Z">
	</path>
</svg>