<svg viewBox="0 0 128 128" width="128px" height="128px" fill="#ffffff" xmlns="http://www.w3.org/2000/svg">
	<path d="M 45.71428680419922 27.99999809265137 C 45.71428680419922 19.17500114440918 53.91429138183594 12 64 12 C 74.08572387695312 12 82.28572082519531 19.17500114440918 82.28572082519531 27.99999809265137 L 82.28572082519531 40 L 45.71428680419922 40 L 45.71428680419922 27.99999809265137 Z M 32 40 L 13.71428680419922 40 C 6.142857551574707 40 0 45.37500381469727 0 52 L 0 104 C 0 117.2499923706055 12.28571510314941 128 27.42857360839844 128 L 100.5714340209961 128 C 115.7142944335938 128 128 117.2499923706055 128 104 L 128 52 C 128 45.37500381469727 121.8571395874023 40 114.2857131958008 40 L 96.00000762939453 40 L 96.00000762939453 27.99999809265137 C 96.00000762939453 12.52500057220459 81.68570709228516 0 64 0 C 46.31428909301758 0 32 12.52500057220459 32 27.99999809265137 L 32 40 Z M 38.85715103149414 52 C 42.64424514770508 52 45.71428680419922 54.68629455566406 45.71428680419922 58.00000381469727 C 45.71428680419922 61.31371307373047 42.64424514770508 64 38.85715103149414 64 C 35.07004928588867 64 32 61.31371307373047 32 58.00000381469727 C 32 54.68629455566406 35.07004928588867 52 38.85715103149414 52 Z M 82.28572082519531 58.00000381469727 C 82.28572082519531 54.68629455566406 85.35575866699219 52 89.14286804199219 52 C 92.92995452880859 52 96.00000762939453 54.68629455566406 96.00000762939453 58.00000381469727 C 96.00000762939453 61.31371307373047 92.92995452880859 64 89.14286804199219 64 C 85.35575866699219 64 82.28572082519531 61.31371307373047 82.28572082519531 58.00000381469727 Z">
	</path>
</svg>