<svg viewBox="0 0 24 24" width="24px" height="24px" xmlns="http://www.w3.org/2000/svg">
	<path d="M 1.008552551269531 0 C 0.4496463239192963 0 0 0.5015624761581421 0 1.125 C 0 1.748437404632568 0.4496463239192963 2.25 1.008552551269531 2.25 L 2.920600175857544 2.25 C 3.080287933349609 2.25 3.218963384628296 2.376562595367432 3.25258207321167 2.5546875 L 5.42096996307373 15.2578125 C 5.694119930267334 16.8515625 6.942203521728516 18 8.391997337341309 18 L 20.50723648071289 18 C 21.06614112854004 18 21.51578903198242 17.49843597412109 21.51578903198242 16.875 C 21.51578903198242 16.25156402587891 21.06614112854004 15.75 20.50723648071289 15.75 L 8.391997337341309 15.75 C 7.908732891082764 15.75 7.492705345153809 15.36562442779541 7.400254249572754 14.8359375 L 7.173329830169678 13.5 L 19.29697418212891 13.5 C 20.66692352294922 13.5 21.86457824707031 12.47812557220459 22.21757316589355 11.00156211853027 L 23.94051742553711 3.862499713897705 C 24.23047637939453 2.671875 23.42363357543945 1.5 22.31842613220215 1.5 L 15.12828826904297 1.5 L 15.12828826904297 6.285937786102295 L 16.09481811523438 5.207812786102295 C 16.48983383178711 4.767187595367432 17.12858581542969 4.767187595367432 17.5193977355957 5.207812786102295 C 17.91021347045898 5.648437976837158 17.91441345214844 6.36093807220459 17.5193977355957 6.796875 L 14.82992553710938 9.796875 C 14.43490791320801 10.23749923706055 13.79615879058838 10.23749923706055 13.40534400939941 9.796875 L 10.71587181091309 6.796875 C 10.32085514068604 6.356250286102295 10.32085514068604 5.643750190734863 10.71587181091309 5.207812309265137 C 11.11088752746582 4.771874904632568 11.74963760375977 4.767187118530273 12.14045143127441 5.207812309265137 L 13.10698127746582 6.285937786102295 L 13.10698127746582 1.5 L 5.0469651222229 1.5 C 4.664555549621582 0.6000000238418579 3.849308967590332 0 2.920600175857544 0 L 1.008552551269531 0 Z M 7.39605188369751 24 C 8.510068893432617 24 9.41315746307373 22.99264144897461 9.41315746307373 21.75 C 9.41315746307373 20.50735855102539 8.510068893432617 19.5 7.39605188369751 19.5 C 6.282035350799561 19.5 5.378947257995605 20.50735855102539 5.378947257995605 21.75 C 5.378947257995605 22.99264144897461 6.282035350799561 24 7.39605188369751 24 Z M 21.51578903198242 21.75 C 21.51578903198242 20.50735855102539 20.61269950866699 19.5 19.49868202209473 19.5 C 18.38466644287109 19.5 17.4815788269043 20.50735855102539 17.4815788269043 21.75 C 17.4815788269043 22.99264144897461 18.38466644287109 24 19.49868202209473 24 C 20.61269950866699 24 21.51578903198242 22.99264144897461 21.51578903198242 21.75 Z">
	</path>
</svg>