<svg viewBox="0 48.082 32 28" width="32px" height="32px" fill="#ffffff" xmlns="http://www.w3.org/2000/svg">
	<path d="M 28.71073722839355 55.06011962890625 C 28.73105049133301 55.36635589599609 28.73105049133301 55.67266082763672 28.73105049133301 55.9788932800293 C 28.73105049133301 65.31947326660156 22.13208770751953 76.08202362060547 10.07110214233398 76.08202362060547 C 6.355337142944336 76.08202362060547 2.903573513031006 74.92259216308594 0 72.91018676757812 C 0.5279395580291748 72.97576904296875 1.035504102706909 72.99765014648438 1.5837562084198 72.99765014648438 C 4.64970588684082 72.99765014648438 7.472091674804688 71.88206481933594 9.725913047790527 69.97892761230469 C 6.8426513671875 69.91327667236328 4.426392555236816 67.87891387939453 3.593888998031616 65.07889556884766 C 4.000015735626221 65.14447784423828 4.406079769134521 65.18824768066406 4.832519054412842 65.18824768066406 C 5.421333789825439 65.18824768066406 6.01021146774292 65.1007080078125 6.558400630950928 64.94766235351562 C 3.553326368331909 64.29135131835938 1.299442648887634 61.44763565063477 1.299442648887634 58.01325988769531 L 1.299442648887634 57.9257926940918 C 2.172508716583252 58.45079803466797 3.187825202941895 58.77891540527344 4.263891696929932 58.82261657714844 C 2.497384786605835 57.55384063720703 1.340067863464355 55.38824081420898 1.340067863464355 52.93822479248047 C 1.340067863464355 51.62574768066406 1.664881706237793 50.42262268066406 2.233446359634399 49.37261581420898 C 5.461896419525146 53.66011047363281 10.31472873687744 56.46006393432617 15.75631237030029 56.7663688659668 C 15.65481281280518 56.24136352539062 15.59387397766113 55.69454193115234 15.59387397766113 55.14765548706055 C 15.59387397766113 51.25386047363281 18.51776123046875 48.08202362060547 22.15227508544922 48.08202362060547 C 24.04059600830078 48.08202362060547 25.74616432189941 48.93514633178711 26.94416809082031 50.31327056884766 C 28.42636108398438 50.00703430175781 29.84767913818359 49.4163818359375 31.10662078857422 48.60702514648438 C 30.61924362182617 50.24768829345703 29.583740234375 51.62581634521484 28.22336006164551 52.50075531005859 C 29.54317855834961 52.34770202636719 30.82237243652344 51.95386505126953 32 51.40704727172852 C 31.10674667358398 52.80698776245117 29.98992919921875 54.05381393432617 28.71073722839355 55.06012344360352 Z">
	</path>
</svg>

