<svg viewBox="0 0 24 24" width="16px" height="16px" xmlns="http://www.w3.org/2000/svg">
	<path d="M 10.85714340209961 6 C 10.85714340209961 3.928931951522827 9.577956199645996 2.25 8 2.25 C 6.422043800354004 2.25 5.142857551574707 3.928932189941406 5.142857551574707 6 C 5.142857551574707 8.071067810058594 6.422044277191162 9.75 8 9.75 C 9.577956199645996 9.75 10.85714340209961 8.071067810058594 10.85714340209961 6 Z M 3.428571701049805 6 C 3.428571701049805 2.686291217803955 5.47527027130127 0 8 0 C 10.52473068237305 0 12.57142925262451 2.686291694641113 12.57142925262451 6 C 12.57142925262451 9.313708305358887 10.52473068237305 12 8 12 C 5.47527027130127 12 3.428571701049805 9.313708305358887 3.428571701049805 5.999999523162842 Z M 1.760714292526245 21.75 L 14.23928642272949 21.75 C 13.92142963409424 18.78281402587891 11.97857284545898 16.5 9.632143974304199 16.5 L 6.367857456207275 16.5 C 4.021429061889648 16.5 2.078571796417236 18.78281402587891 1.760714530944824 21.75 Z M 0 22.60781097412109 C 0 17.99062347412109 2.850000143051147 14.25 6.367857456207275 14.25 L 9.632143974304199 14.25 C 13.15000057220459 14.25 16 17.99062347412109 16 22.60781097412109 C 16 23.37656211853027 15.52500152587891 24 14.93928623199463 24 L 1.060714364051819 24 C 0.4750000238418579 24 0 23.37656402587891 0 22.60781097412109 Z">
	</path>
</svg>